<svg xmlns="http://www.w3.org/2000/svg" viewBox="0 0 500 500"><g id="freepik--background-complete--inject-3"><rect y="382.4" width="500" height="0.25" style="fill:#ebebeb"></rect><rect x="416.78" y="398.49" width="33.12" height="0.25" style="fill:#ebebeb"></rect><rect x="322.53" y="401.21" width="8.69" height="0.25" style="fill:#ebebeb"></rect><rect x="396.59" y="389.21" width="19.19" height="0.25" style="fill:#ebebeb"></rect><rect x="52.46" y="390.89" width="43.19" height="0.25" style="fill:#ebebeb"></rect><rect x="104.56" y="390.89" width="6.33" height="0.25" style="fill:#ebebeb"></rect><rect x="131.47" y="395.11" width="93.68" height="0.25" style="fill:#ebebeb"></rect><path d="M237,337.8H43.91a5.71,5.71,0,0,1-5.7-5.71V60.66A5.71,5.71,0,0,1,43.91,55H237a5.71,5.71,0,0,1,5.71,5.71V332.09A5.71,5.71,0,0,1,237,337.8ZM43.91,55.2a5.46,5.46,0,0,0-5.45,5.46V332.09a5.46,5.46,0,0,0,5.45,5.46H237a5.47,5.47,0,0,0,5.46-5.46V60.66A5.47,5.47,0,0,0,237,55.2Z" style="fill:#ebebeb"></path><path d="M453.31,337.8H260.21a5.72,5.72,0,0,1-5.71-5.71V60.66A5.72,5.72,0,0,1,260.21,55h193.1A5.71,5.71,0,0,1,459,60.66V332.09A5.71,5.71,0,0,1,453.31,337.8ZM260.21,55.2a5.47,5.47,0,0,0-5.46,5.46V332.09a5.47,5.47,0,0,0,5.46,5.46h193.1a5.47,5.47,0,0,0,5.46-5.46V60.66a5.47,5.47,0,0,0-5.46-5.46Z" style="fill:#ebebeb"></path><path d="M156.52,292.52,142.67,304.1l19.73,28.68,15.76-8.8a93.08,93.08,0,0,0,29.19,19l-1.6,17.93L240,367.22l4.91-17.32a92.71,92.71,0,0,0,34-7.3l11.58,13.85,28.68-19.73L310.39,321a92.92,92.92,0,0,0,19-29.18l17.92,1.6,6.33-34.23-17.32-4.92a93,93,0,0,0-7.3-34l13.85-11.58-19.73-28.67-15.77,8.79a93.07,93.07,0,0,0-29.18-19l1.6-17.93-34.23-6.32-4.91,17.31a93.17,93.17,0,0,0-34,7.3L195,156.26,166.34,176l8.79,15.76a93.12,93.12,0,0,0-19,29.19l-17.93-1.6-6.32,34.23,17.31,4.91A92.92,92.92,0,0,0,156.52,292.52Zm39.91-44.73a47.12,47.12,0,1,1,37.77,54.9A47.12,47.12,0,0,1,196.43,247.79Z" style="fill:#f0f0f0"></path><path d="M387.38,274.83l10.82,2,1.55-5.47a29.54,29.54,0,0,0,10.76-2.31l3.66,4.38,9.07-6.24-2.78-5a29.26,29.26,0,0,0,6-9.22l5.67.5,2-10.81-5.48-1.56a29.22,29.22,0,0,0-2.31-10.76l4.38-3.66-6.24-9.06-5,2.78a29.57,29.57,0,0,0-9.22-6l.5-5.66-10.82-2-1.55,5.47a29.58,29.58,0,0,0-10.76,2.31L384,210.14l-9.07,6.24,2.78,5a29.26,29.26,0,0,0-6,9.22l-5.67-.5-2,10.81,5.47,1.56a29.42,29.42,0,0,0,2.31,10.76l-4.38,3.66,6.24,9.06,5-2.78a29.3,29.3,0,0,0,9.23,6Zm-2.95-35.75a14.9,14.9,0,1,1,11.94,17.35A14.91,14.91,0,0,1,384.43,239.08Z" style="fill:#f0f0f0"></path><path d="M83.7,305.64l8.24,1.53L93.13,303a22.62,22.62,0,0,0,8.19-1.76l2.79,3.33,6.91-4.75L108.9,296a22.34,22.34,0,0,0,4.57-7l4.32.38,1.52-8.24L115.14,280a22.27,22.27,0,0,0-1.76-8.2l3.34-2.79-4.76-6.9-3.79,2.12a22.54,22.54,0,0,0-7-4.58l.39-4.31-8.25-1.53-1.18,4.17a22.68,22.68,0,0,0-8.2,1.76l-2.78-3.33-6.91,4.75,2.12,3.8a22.29,22.29,0,0,0-4.57,7l-4.32-.38-1.52,8.24L70.09,281a22.27,22.27,0,0,0,1.76,8.2L68.51,292l4.75,6.9,3.8-2.11a22.57,22.57,0,0,0,7,4.57Zm-2.24-27.23a11.34,11.34,0,1,1,9.09,13.22A11.35,11.35,0,0,1,81.46,278.41Z" style="fill:#f0f0f0"></path><path d="M230.85,122l6.24,1.15L238,120a16.73,16.73,0,0,0,6.21-1.33l2.11,2.53,5.22-3.6-1.6-2.87a17,17,0,0,0,3.46-5.32l3.26.29,1.15-6.23-3.15-.9a17.08,17.08,0,0,0-1.33-6.2l2.52-2.11-3.59-5.22-2.87,1.6a17,17,0,0,0-5.32-3.46l.29-3.26-6.24-1.16-.89,3.16a16.64,16.64,0,0,0-6.2,1.33l-2.11-2.53-5.23,3.6,1.61,2.87a16.85,16.85,0,0,0-3.46,5.32l-3.27-.29-1.15,6.23,3.15.9a17,17,0,0,0,1.33,6.2l-2.52,2.11,3.6,5.22,2.87-1.6a16.87,16.87,0,0,0,5.31,3.46Zm-1.69-20.61a8.58,8.58,0,1,1,6.88,10A8.58,8.58,0,0,1,229.16,101.41Z" style="fill:#f0f0f0"></path><path d="M334.49,172.19l4.16.76.59-2.1a11.33,11.33,0,0,0,4.14-.89l1.41,1.69,3.48-2.4-1.07-1.92a11.29,11.29,0,0,0,2.31-3.54l2.18.19.77-4.16-2.11-.6a11.31,11.31,0,0,0-.88-4.13l1.68-1.41-2.4-3.48-1.91,1.07a11.45,11.45,0,0,0-3.55-2.31l.19-2.18-4.16-.77-.59,2.11a11.32,11.32,0,0,0-4.14.88l-1.41-1.68-3.48,2.4,1.07,1.91a11.45,11.45,0,0,0-2.31,3.55l-2.18-.19-.76,4.15,2.1.6a11.13,11.13,0,0,0,.89,4.14l-1.69,1.4,2.4,3.49,1.92-1.07a11.29,11.29,0,0,0,3.54,2.31Zm-1.13-13.75a5.73,5.73,0,1,1,4.59,6.67A5.73,5.73,0,0,1,333.36,158.44Z" style="fill:#f0f0f0"></path><path d="M142.75,122.07l4.16.77.59-2.1a11.54,11.54,0,0,0,4.14-.89l1.41,1.68,3.48-2.4-1.07-1.91a11.34,11.34,0,0,0,2.31-3.55l2.18.2.77-4.16-2.11-.6a11.36,11.36,0,0,0-.88-4.14l1.68-1.4-2.4-3.49-1.92,1.07a11.09,11.09,0,0,0-3.54-2.3l.19-2.18-4.16-.77L147,98a11.33,11.33,0,0,0-4.14.89l-1.41-1.68L138,99.6l1.07,1.92a11.34,11.34,0,0,0-2.31,3.55l-2.18-.2-.76,4.16,2.1.6a11.08,11.08,0,0,0,.89,4.13l-1.69,1.41,2.4,3.49,1.92-1.07a11.27,11.27,0,0,0,3.54,2.3Zm-1.13-13.74a5.73,5.73,0,1,1,4.59,6.67A5.73,5.73,0,0,1,141.62,108.33Z" style="fill:#f0f0f0"></path><path d="M327.62,343.76a19.54,19.54,0,0,0,1.55,7.22l-2.94,2.46,4.19,6.07,3.34-1.86a19.76,19.76,0,0,0,6.19,4l-.34,3.8,7.26,1.34,1-3.67a19.94,19.94,0,0,0,7.21-1.55l2.46,2.93,6.08-4.18L361.8,357a19.68,19.68,0,0,0,4-6.19l3.8.34L371,343.9l-3.67-1a19.54,19.54,0,0,0-1.55-7.22l2.94-2.45-4.18-6.08L361.15,329a19.52,19.52,0,0,0-6.18-4l.33-3.81-7.25-1.34-1,3.67a20,20,0,0,0-7.22,1.55l-2.46-2.93-6.08,4.18,1.87,3.34a19.7,19.7,0,0,0-4,6.19l-3.8-.34L324,342.72Zm10-2.26a10,10,0,1,1,8,11.63A10,10,0,0,1,337.63,341.5Z" style="fill:#f0f0f0"></path><path d="M390.43,300.7l-11.17,4.09,11.17,4.06V313l-16-6.07v-4.36l16-6.07Z" style="fill:#e0e0e0"></path><path d="M402.45,288.28h4.67l-11.07,31.61h-4.67Z" style="fill:#e0e0e0"></path><path d="M423.7,302.61V307l-16,6.07v-4.19l11.17-4.06-11.17-4.09v-4.16Z" style="fill:#e0e0e0"></path><path d="M112.84,354.08c1.6.48,2.34,1.49,2.34,3.9v5.57a2.29,2.29,0,0,0,2.54,2.58h.63v4.25h-2c-4.36,0-6.59-2.23-6.59-6.24v-6.3c0-1.12-.59-1.64-1.53-1.64h-1.15V352h1.15c.94,0,1.53-.52,1.53-1.64V344c0-4,2.23-6.23,6.59-6.23h2V342h-.63a2.29,2.29,0,0,0-2.54,2.58v5.57C115.18,352.58,114.44,353.59,112.84,354.08Z" style="fill:#e0e0e0"></path><path d="M140.56,352v4.25h-1.15a1.43,1.43,0,0,0-1.54,1.64v6.3c0,4-2.23,6.24-6.58,6.24h-2v-4.25h.63a2.29,2.29,0,0,0,2.54-2.58V358c0-2.41.73-3.42,2.33-3.9-1.6-.49-2.33-1.5-2.33-3.91V344.6A2.29,2.29,0,0,0,129.9,342h-.63v-4.25h2c4.35,0,6.58,2.23,6.58,6.23v6.31a1.43,1.43,0,0,0,1.54,1.64Z" style="fill:#e0e0e0"></path><path d="M98.49,151.13c0-6.86,5.26-11.76,12.34-11.76a11.72,11.72,0,0,1,9.35,4l-3.38,3.11a7.31,7.31,0,0,0-5.71-2.66,7.28,7.28,0,1,0,0,14.55,7.22,7.22,0,0,0,5.71-2.7l3.38,3.12a11.67,11.67,0,0,1-9.38,4.06C103.75,162.88,98.49,158,98.49,151.13Z" style="fill:#e0e0e0"></path><path d="M138.31,153.11h-5.65v5.52h-4.19v-5.52h-5.61v-4h5.61v-5.53h4.19v5.53h5.65Z" style="fill:#e0e0e0"></path><path d="M158,153.11h-5.65v5.52h-4.19v-5.52h-5.62v-4h5.62v-5.53h4.19v5.53H158Z" style="fill:#e0e0e0"></path><path d="M182.06,265.63l3.28-3.94c1.39,1.86,2.93,2.81,4.75,2.81,2.38,0,3.62-1.43,3.62-4.24V248.1h-9v-4.75h14.87v16.58c0,6.32-3.18,9.43-9.21,9.43A10.27,10.27,0,0,1,182.06,265.63Z" style="fill:#e0e0e0"></path><path d="M203.14,267.09,205,263a13.49,13.49,0,0,0,6.83,1.9c2.63,0,3.62-.69,3.62-1.79,0-3.21-11.87.07-11.87-7.78,0-3.73,3.36-6.36,9.09-6.36a16.15,16.15,0,0,1,7.57,1.72l-1.9,4.06a11.3,11.3,0,0,0-5.67-1.47c-2.55,0-3.65.81-3.65,1.83,0,3.36,11.87.11,11.87,7.85,0,3.66-3.39,6.25-9.28,6.25A16.84,16.84,0,0,1,203.14,267.09Z" style="fill:#e0e0e0"></path></g><g id="freepik--Shadow--inject-3"><ellipse id="freepik--path--inject-3" cx="250" cy="416.24" rx="193.89" ry="11.32" style="fill:#f5f5f5"></ellipse></g><g id="freepik--program-icons--inject-3"><rect x="293.83" y="93.01" width="34.37" height="34.37" rx="2.27" style="fill:#000000"></rect><g style="isolation:isolate;opacity:0.4"><rect x="293.83" y="93.01" width="34.37" height="34.37" rx="2.27" style="fill:#fff"></rect></g><path d="M306.4,108.38l-6,2.19,6,2.17V115l-8.52-3.25v-2.32l8.52-3.25Z" style="fill:#fff"></path><path d="M312.82,101.76h2.49l-5.92,16.87H306.9Z" style="fill:#fff"></path><path d="M324.15,109.41v2.32L315.63,115v-2.24l6-2.17-6-2.19v-2.22Z" style="fill:#fff"></path><path d="M301.4,133.66V142h-1.93v-3.43h-3.8V142h-1.93v-8.35h1.93V137h3.8v-3.29Z" style="fill:#263238"></path><path d="M305.12,135.23h-2.68v-1.57h7.28v1.57h-2.67V142h-1.93Z" style="fill:#263238"></path><path d="M318.37,142v-5l-2.46,4.13H315l-2.45-4V142h-1.81v-8.35h1.6l3.12,5.19,3.08-5.19h1.59l0,8.35Z" style="fill:#263238"></path><path d="M322.17,133.66h1.93v6.77h4.19V142h-6.12Z" style="fill:#263238"></path><g style="isolation:isolate;opacity:0.6000000000000001"><path d="M301.4,133.66V142h-1.93v-3.43h-3.8V142h-1.93v-8.35h1.93V137h3.8v-3.29Z" style="fill:#fff"></path><path d="M305.12,135.23h-2.68v-1.57h7.28v1.57h-2.67V142h-1.93Z" style="fill:#fff"></path><path d="M318.37,142v-5l-2.46,4.13H315l-2.45-4V142h-1.81v-8.35h1.6l3.12,5.19,3.08-5.19h1.59l0,8.35Z" style="fill:#fff"></path><path d="M322.17,133.66h1.93v6.77h4.19V142h-6.12Z" style="fill:#fff"></path></g><rect x="367.34" y="111.33" width="34.37" height="34.37" rx="2.27" style="fill:#000000"></rect><g style="isolation:isolate;opacity:0.4"><rect x="367.34" y="111.33" width="34.37" height="34.37" rx="2.27" style="fill:#fff"></rect></g><path d="M378.89,128.51c.82.25,1.2.77,1.2,2v2.87a1.18,1.18,0,0,0,1.31,1.32h.32v2.19h-1c-2.24,0-3.38-1.15-3.38-3.21v-3.24a.74.74,0,0,0-.79-.84h-.59v-2.19h.59a.74.74,0,0,0,.79-.84v-3.24c0-2.06,1.14-3.21,3.38-3.21h1v2.19h-.32a1.18,1.18,0,0,0-1.31,1.32v2.87C380.09,127.74,379.71,128.26,378.89,128.51Z" style="fill:#fff"></path><path d="M393.13,127.42v2.19h-.59a.74.74,0,0,0-.79.84v3.24c0,2.06-1.15,3.21-3.38,3.21h-1v-2.19h.32a1.18,1.18,0,0,0,1.31-1.32v-2.87c0-1.24.37-1.76,1.2-2-.83-.25-1.2-.77-1.2-2v-2.87a1.18,1.18,0,0,0-1.31-1.32h-.32v-2.19h1c2.23,0,3.38,1.15,3.38,3.21v3.24a.74.74,0,0,0,.79.84Z" style="fill:#fff"></path><path d="M373,156.28a4.6,4.6,0,0,1,8-2.84l-1.24,1.15a2.68,2.68,0,0,0-2.1-1,2.68,2.68,0,1,0,0,5.35,2.69,2.69,0,0,0,2.1-1l1.24,1.14a4.59,4.59,0,0,1-8-2.83Z" style="fill:#263238"></path><path d="M381.52,159.64l.65-1.46a5,5,0,0,0,2.76.87c1.14,0,1.61-.38,1.61-.89,0-1.57-4.86-.49-4.86-3.59,0-1.42,1.15-2.61,3.52-2.61a5.68,5.68,0,0,1,2.9.74l-.59,1.47a4.75,4.75,0,0,0-2.32-.65c-1.14,0-1.59.42-1.59.95,0,1.54,4.86.48,4.86,3.54,0,1.4-1.16,2.59-3.54,2.59A6,6,0,0,1,381.52,159.64Z" style="fill:#263238"></path><path d="M389.13,159.64l.66-1.46a4.92,4.92,0,0,0,2.76.87c1.14,0,1.61-.38,1.61-.89,0-1.57-4.86-.49-4.86-3.59,0-1.42,1.15-2.61,3.52-2.61a5.71,5.71,0,0,1,2.9.74l-.6,1.47a4.69,4.69,0,0,0-2.31-.65c-1.15,0-1.59.42-1.59.95,0,1.54,4.86.48,4.86,3.54,0,1.4-1.16,2.59-3.55,2.59A6,6,0,0,1,389.13,159.64Z" style="fill:#263238"></path><g style="isolation:isolate;opacity:0.6000000000000001"><path d="M373,156.28a4.6,4.6,0,0,1,8-2.84l-1.24,1.15a2.68,2.68,0,0,0-2.1-1,2.68,2.68,0,1,0,0,5.35,2.69,2.69,0,0,0,2.1-1l1.24,1.14a4.59,4.59,0,0,1-8-2.83Z" style="fill:#fff"></path><path d="M381.52,159.64l.65-1.46a5,5,0,0,0,2.76.87c1.14,0,1.61-.38,1.61-.89,0-1.57-4.86-.49-4.86-3.59,0-1.42,1.15-2.61,3.52-2.61a5.68,5.68,0,0,1,2.9.74l-.59,1.47a4.75,4.75,0,0,0-2.32-.65c-1.14,0-1.59.42-1.59.95,0,1.54,4.86.48,4.86,3.54,0,1.4-1.16,2.59-3.54,2.59A6,6,0,0,1,381.52,159.64Z" style="fill:#fff"></path><path d="M389.13,159.64l.66-1.46a4.92,4.92,0,0,0,2.76.87c1.14,0,1.61-.38,1.61-.89,0-1.57-4.86-.49-4.86-3.59,0-1.42,1.15-2.61,3.52-2.61a5.71,5.71,0,0,1,2.9.74l-.6,1.47a4.69,4.69,0,0,0-2.31-.65c-1.15,0-1.59.42-1.59.95,0,1.54,4.86.48,4.86,3.54,0,1.4-1.16,2.59-3.55,2.59A6,6,0,0,1,389.13,159.64Z" style="fill:#fff"></path></g></g><g id="freepik--Tabs--inject-3"><rect x="148.55" y="107.98" width="122.51" height="88.68"></rect><rect x="148.55" y="107.98" width="122.51" height="88.68" style="fill:#fff;isolation:isolate;opacity:0.9"></rect><rect x="148.55" y="107.98" width="17.06" height="88.68" style="opacity:0.1"></rect><rect x="148.55" y="107.98" width="122.51" height="8.29" style="fill:#000000"></rect><g style="opacity:0.2"><path d="M197.71,128.78H175.4a1,1,0,0,1,0-2h22.31a1,1,0,0,1,0,2Z"></path><path d="M247,128.78H203.65a1,1,0,0,1,0-2H247a1,1,0,0,1,0,2Z"></path><path d="M236.68,135.31H178.4a1,1,0,0,1,0-2h58.28a1,1,0,0,1,0,2Z"></path><path d="M212.94,141.83H175.4a1,1,0,0,1,0-2h37.54a1,1,0,0,1,0,2Z"></path><path d="M247,141.83h-26.9a1,1,0,0,1,0-2H247a1,1,0,0,1,0,2Z"></path><path d="M196.13,148.36H175.4a1,1,0,1,1,0-2h20.73a1,1,0,0,1,0,2Z"></path><path d="M235.49,148.36H202.85a1,1,0,0,1,0-2h32.64a1,1,0,0,1,0,2Z"></path><path d="M206.29,154.89H178.4a1,1,0,1,1,0-2h27.89a1,1,0,0,1,0,2Z"></path><path d="M209.78,161.42H178.4a1,1,0,0,1,0-2h31.38a1,1,0,0,1,0,2Z"></path><path d="M247,161.42h-32a1,1,0,0,1,0-2h32a1,1,0,0,1,0,2Z"></path><path d="M193.36,167.94h-18a1,1,0,0,1,0-2h18a1,1,0,0,1,0,2Z"></path><path d="M247,167.94H199.49a1,1,0,0,1,0-2H247a1,1,0,0,1,0,2Z"></path><path d="M209.58,174.47H178.4a1,1,0,0,1,0-2h31.18a1,1,0,0,1,0,2Z"></path><path d="M234.11,174.47H213.93a1,1,0,0,1,0-2h20.18a1,1,0,0,1,0,2Z"></path><path d="M214.29,181H178.4a1,1,0,1,1,0-2h35.89a1,1,0,0,1,0,2Z"></path></g><circle cx="265.79" cy="112.18" r="1.71" style="fill:#fff;opacity:0.4"></circle><circle cx="259.78" cy="112.18" r="1.71" style="fill:#fff;opacity:0.4"></circle><circle cx="253.78" cy="112.18" r="1.71" style="fill:#fff;opacity:0.4"></circle><g style="opacity:0.2"><path d="M157.38,128.78h0a1,1,0,0,1,0-2,1,1,0,0,1,1,1A1,1,0,0,1,157.38,128.78Z"></path><path d="M157.38,135.31h0a1,1,0,1,1,0-2,1,1,0,0,1,1,1A1,1,0,0,1,157.38,135.31Z"></path><path d="M157.38,141.83h0a1,1,0,0,1,0-2,1,1,0,0,1,1,1A1,1,0,0,1,157.38,141.83Z"></path><path d="M157.38,148.36h0a1,1,0,0,1,0-2,1,1,0,0,1,1,1A1,1,0,0,1,157.38,148.36Z"></path><path d="M157.38,154.89h0a1,1,0,0,1,0-2,1,1,0,0,1,1,1A1,1,0,0,1,157.38,154.89Z"></path><path d="M157.38,161.42h0a1,1,0,0,1,0-2,1,1,0,0,1,1,1A1,1,0,0,1,157.38,161.42Z"></path><path d="M157.38,167.94h0a1,1,0,1,1,0-2,1,1,0,0,1,1,1A1,1,0,0,1,157.38,167.94Z"></path><path d="M157.38,174.47h0a1,1,0,0,1,0-2,1,1,0,0,1,1,1A1,1,0,0,1,157.38,174.47Z"></path><path d="M157.38,181h0a1,1,0,0,1,0-2,1,1,0,0,1,1,1A1,1,0,0,1,157.38,181Z"></path></g><rect x="221.49" y="180.34" width="160.53" height="102.79" style="fill:#263238"></rect><rect x="221.49" y="180.34" width="160.53" height="102.79" style="fill:#fff;isolation:isolate;opacity:0.9"></rect><rect x="221.49" y="180.34" width="25.04" height="102.79" style="opacity:0.1"></rect><rect x="221.49" y="180.34" width="160.53" height="8.29" style="fill:#000000"></rect><path d="M232.83,197.72l-2.66,1,2.66,1v1l-3.8-1.45v-1l3.8-1.44Z" style="fill:#fff"></path><path d="M235.7,194.76h1.11l-2.64,7.53h-1.11Z" style="fill:#fff"></path><path d="M240.76,198.17v1l-3.8,1.45v-1l2.66-1-2.66-1v-1Z" style="fill:#fff"></path><g style="opacity:0.2"><path d="M240.2,209.15H229.32a1,1,0,0,1,0-2H240.2a1,1,0,0,1,0,2Z"></path><path d="M240.2,215.67H229.32a1,1,0,0,1,0-2H240.2a1,1,0,0,1,0,2Z"></path><path d="M240.2,222.2H229.32a1,1,0,0,1,0-2H240.2a1,1,0,0,1,0,2Z"></path><path d="M240.2,228.73H229.32a1,1,0,0,1,0-2H240.2a1,1,0,0,1,0,2Z"></path><path d="M240.2,235.26H229.32a1,1,0,0,1,0-2H240.2a1,1,0,0,1,0,2Z"></path><path d="M240.2,241.78H229.32a1,1,0,0,1,0-2H240.2a1,1,0,0,1,0,2Z"></path><path d="M240.2,248.31H229.32a1,1,0,0,1,0-2H240.2a1,1,0,0,1,0,2Z"></path><path d="M240.2,254.84H229.32a1,1,0,0,1,0-2H240.2a1,1,0,0,1,0,2Z"></path><path d="M240.2,261.37H229.32a1,1,0,0,1,0-2H240.2a1,1,0,0,1,0,2Z"></path></g><path d="M271.65,209.15H249.34a1,1,0,0,1,0-2h22.31a1,1,0,0,1,0,2Z" style="fill:#000000"></path><path d="M335.74,209.15H277.59a1,1,0,0,1,0-2h58.15a1,1,0,0,1,0,2Z" style="fill:#263238"></path><g style="opacity:0.2"><path d="M362.28,209.15H345.43a1,1,0,0,1,0-2h16.85a1,1,0,0,1,0,2Z" style="fill:#263238"></path></g><g style="opacity:0.2"><path d="M310.62,215.67H252.34a1,1,0,0,1,0-2h58.28a1,1,0,0,1,0,2Z" style="fill:#263238"></path></g><path d="M370.28,215.67H316a1,1,0,0,1,0-2h54.32a1,1,0,0,1,0,2Z" style="fill:#000000"></path><path d="M286.88,222.2H252.34a1,1,0,1,1,0-2h34.54a1,1,0,0,1,0,2Z" style="fill:#263238"></path><path d="M328,222.2H294a1,1,0,0,1,0-2h34a1,1,0,0,1,0,2Z" style="fill:#000000"></path><path d="M370.28,222.2H333.56a1,1,0,0,1,0-2h36.72a1,1,0,0,1,0,2Z" style="fill:#263238"></path><path d="M290.08,228.73H269.35a1,1,0,0,1,0-2h20.73a1,1,0,0,1,0,2Z" style="fill:#263238"></path><path d="M319.44,228.73H296.81a1,1,0,0,1,0-2h22.63a1,1,0,0,1,0,2Z" style="fill:#263238"></path><g style="opacity:0.2"><path d="M361.28,228.73h-36.7a1,1,0,0,1,0-2h36.7a1,1,0,0,1,0,2Z" style="fill:#263238"></path></g><g style="opacity:0.2"><path d="M280.23,235.26H252.34a1,1,0,0,1,0-2h27.89a1,1,0,0,1,0,2Z" style="fill:#263238"></path></g><path d="M283.72,241.78H252.34a1,1,0,0,1,0-2h31.38a1,1,0,0,1,0,2Z" style="fill:#000000"></path><path d="M336.14,241.78H288.86a1,1,0,0,1,0-2h47.28a1,1,0,0,1,0,2Z" style="fill:#263238"></path><path d="M370.28,241.78H341.87a1,1,0,0,1,0-2h28.41a1,1,0,0,1,0,2Z" style="fill:#263238"></path><g style="opacity:0.2"><path d="M280.31,248.31h-18a1,1,0,0,1,0-2h18a1,1,0,0,1,0,2Z" style="fill:#263238"></path></g><g style="opacity:0.2"><path d="M320.9,248.31H286.44a1,1,0,0,1,0-2H320.9a1,1,0,0,1,0,2Z" style="fill:#263238"></path></g><path d="M361.28,248.31H327.63a1,1,0,0,1,0-2h33.65a1,1,0,0,1,0,2Z" style="fill:#263238"></path><path d="M293.53,254.84H272.35a1,1,0,0,1,0-2h21.18a1,1,0,0,1,0,2Z" style="fill:#263238"></path><g style="opacity:0.2"><path d="M318.05,254.84H297.88a1,1,0,0,1,0-2h20.17a1,1,0,0,1,0,2Z" style="fill:#263238"></path></g><path d="M361.28,254.84h-36.9a1,1,0,0,1,0-2h36.9a1,1,0,0,1,0,2Z" style="fill:#000000"></path><g style="opacity:0.2"><path d="M298.24,261.37H272.35a1,1,0,0,1,0-2h25.89a1,1,0,0,1,0,2Z" style="fill:#263238"></path></g><path d="M375,184.55a1.72,1.72,0,1,0,1.71-1.72A1.71,1.71,0,0,0,375,184.55Z" style="fill:#fff;opacity:0.4"></path><circle cx="370.75" cy="184.55" r="1.71" style="fill:#fff;opacity:0.4"></circle><circle cx="364.74" cy="184.55" r="1.71" style="fill:#fff;opacity:0.4"></circle></g><g id="freepik--Table--inject-3"><path d="M75.5,400.08H426.2a4.44,4.44,0,0,1,4.44,4.44v10.8a0,0,0,0,1,0,0H71.06a0,0,0,0,1,0,0v-10.8A4.44,4.44,0,0,1,75.5,400.08Z" transform="translate(501.7 815.41) rotate(180)" style="fill:#000000"></path><rect x="71.06" y="400.08" width="359.59" height="7.62" transform="translate(501.7 807.78) rotate(180)" style="isolation:isolate;opacity:0.2"></rect><path d="M63.52,402.07H438.18a4.3,4.3,0,0,0,4.3-4.29h0a4.3,4.3,0,0,0-4.3-4.3H63.52a4.3,4.3,0,0,0-4.3,4.3h0A4.3,4.3,0,0,0,63.52,402.07Z" style="fill:#000000"></path></g><g id="freepik--device-2--inject-3"><path d="M412.79,341l-10.94,49.62a3.73,3.73,0,0,1-3.55,2.82H338.54a2.41,2.41,0,0,1-2.24-3.12l10.92-49.24a3.42,3.42,0,0,1,3.55-2.43h59.76C412.13,338.69,413.14,339.42,412.79,341Z" style="fill:#263238"></path><path d="M412.79,341l-10.94,49.62a3.73,3.73,0,0,1-3.55,2.82H340.57a2.41,2.41,0,0,1-2.25-3.12l10.94-49.24a3.39,3.39,0,0,1,3.55-2.43h57.72C412.13,338.69,413.14,339.42,412.79,341Z" style="fill:#fff;isolation:isolate;opacity:0.4"></path><path d="M403.26,391.91l10.88-49.36c.36-1.62-.65-2.35-2.26-2.35H354.16a3.41,3.41,0,0,0-3.55,2.43l-11.05,49.93Z" style="fill:#000000"></path><path d="M414.14,342.54l-5.74,26.08-5.15,23.29-34.1.35-29.58.29,11-49.92a3.39,3.39,0,0,1,3.54-2.43H411.9C413.5,340.2,414.5,340.94,414.14,342.54Z" style="fill:#fff;isolation:isolate;opacity:0.4"></path><path d="M408.4,368.62l-5.15,23.29-34.1.35H340.83l4.63-21.3a3,3,0,0,1,2.9-2.34Z" style="isolation:isolate;opacity:0.2"></path><path d="M409.38,371.86a3.39,3.39,0,0,0-3.55-2.42H348.11c-1.6,0-2.61.72-2.26,2.34l4.38,19.86h-9.75a.92.92,0,1,0,0,1.84h71.1a2.09,2.09,0,0,0,2-2.55Z" style="fill:#000000"></path><path d="M409.38,371.86a3.39,3.39,0,0,0-3.55-2.42H348.11c-1.6,0-2.61.72-2.26,2.34l4.38,19.86h-9.75a.92.92,0,1,0,0,1.84h71.1a2.09,2.09,0,0,0,2-2.55Z" style="fill:#fff;isolation:isolate;opacity:0.4"></path><polygon points="338.75 383.91 335.4 383.91 334.98 385.72 338.24 385.72 338.75 383.91"></polygon><path d="M317.58,393.71h-9.65a.56.56,0,0,1-.57-.57.57.57,0,0,1,.57-.57h9.65a10.55,10.55,0,0,0,8.25-3.95,11.68,11.68,0,0,1,9.15-4.38h1.7a.58.58,0,0,1,.57.57.57.57,0,0,1-.57.57H335a10.55,10.55,0,0,0-8.25,3.95A11.69,11.69,0,0,1,317.58,393.71Z"></path></g><g id="freepik--device-1--inject-3"><path d="M156.78,386.65v4.17c0,1.88,2.27,2.66,4.15,2.66H307.51c1.86,0,4.07-.78,4.07-2.66v-4.17Z" style="fill:#263238"></path><path d="M156.78,386.65v4.17c0,1.88,2.27,2.66,4.15,2.66H307.51c1.86,0,4.07-.78,4.07-2.66v-4.17Z" style="fill:#fff;isolation:isolate;opacity:0.4"></path><path d="M206.72,386.65v4.17c0,1.88,2.23,2.66,4.11,2.66h96.68c1.86,0,4.07-.78,4.07-2.66v-4.17Z" style="isolation:isolate;opacity:0.2"></path><path d="M336.11,307.33l-17.45,79.15A5.94,5.94,0,0,1,313,391H217.67c-2.53,0-4.17-2.37-3.58-5l17.43-78.55c.59-2.58,3.11-3.87,5.67-3.87h95.32C335.07,303.59,336.68,304.75,336.11,307.33Z" style="fill:#263238"></path><path d="M336.11,307.33l-17.45,79.15A5.94,5.94,0,0,1,313,391H220.91c-2.56,0-4.17-2.37-3.6-5l17.45-78.55c.57-2.58,3.11-3.87,5.67-3.87h92.08C335.07,303.59,336.68,304.75,336.11,307.33Z" style="fill:#fff;isolation:isolate;opacity:0.4"></path><path d="M289.11,347.56v0c0,6.78-7.26,12.29-12.59,12.29s-8.48-5.51-7-12.29,6.81-12.05,12-12.26c-1.52,6.78,1.73,12.26,7,12.26A3.12,3.12,0,0,0,289.11,347.56Z" style="isolation:isolate;opacity:0.2"></path></g></svg>